<mxfile host="Electron" agent="Mozilla/5.0 (Windows NT 10.0; Win64; x64) AppleWebKit/537.36 (KHTML, like Gecko) draw.io/26.1.1 Chrome/132.0.6834.210 Electron/34.3.3 Safari/537.36" version="26.1.1">
  <diagram name="Page-1" id="j_PCnwLUsdie9Q3XwJR7">
    <mxGraphModel dx="794" dy="788" grid="1" gridSize="10" guides="1" tooltips="1" connect="1" arrows="1" fold="1" page="1" pageScale="1" pageWidth="827" pageHeight="1169" math="0" shadow="0">
      <root>
        <mxCell id="0" />
        <mxCell id="1" parent="0" />
        <mxCell id="qEiHsR2s-lAKqubrOGQe-2" value="&lt;font style=&quot;font-size: 19px;&quot;&gt;&lt;b&gt;musician&lt;/b&gt;&lt;/font&gt;" style="whiteSpace=wrap;html=1;align=center;" parent="1" vertex="1">
          <mxGeometry x="210" y="140" width="100" height="40" as="geometry" />
        </mxCell>
        <mxCell id="qEiHsR2s-lAKqubrOGQe-3" value="name" style="ellipse;whiteSpace=wrap;html=1;align=center;" parent="1" vertex="1">
          <mxGeometry x="170" y="90" width="50" height="20" as="geometry" />
        </mxCell>
        <mxCell id="qEiHsR2s-lAKqubrOGQe-5" value="" style="endArrow=none;html=1;rounded=0;" parent="1" source="qEiHsR2s-lAKqubrOGQe-3" target="qEiHsR2s-lAKqubrOGQe-2" edge="1">
          <mxGeometry relative="1" as="geometry">
            <mxPoint x="200" y="230" as="sourcePoint" />
            <mxPoint x="360" y="230" as="targetPoint" />
          </mxGeometry>
        </mxCell>
        <mxCell id="qEiHsR2s-lAKqubrOGQe-6" value="address" style="ellipse;whiteSpace=wrap;html=1;align=center;" parent="1" vertex="1">
          <mxGeometry x="228.75" y="90" width="62.5" height="25" as="geometry" />
        </mxCell>
        <mxCell id="qEiHsR2s-lAKqubrOGQe-7" value="ID" style="ellipse;whiteSpace=wrap;html=1;align=center;fontStyle=4;" parent="1" vertex="1">
          <mxGeometry x="100" y="100" width="50" height="20" as="geometry" />
        </mxCell>
        <mxCell id="qEiHsR2s-lAKqubrOGQe-8" value="" style="endArrow=none;html=1;rounded=0;" parent="1" source="qEiHsR2s-lAKqubrOGQe-7" target="qEiHsR2s-lAKqubrOGQe-2" edge="1">
          <mxGeometry relative="1" as="geometry">
            <mxPoint x="263" y="120" as="sourcePoint" />
            <mxPoint x="267" y="150" as="targetPoint" />
          </mxGeometry>
        </mxCell>
        <mxCell id="qEiHsR2s-lAKqubrOGQe-9" value="" style="endArrow=none;html=1;rounded=0;" parent="1" source="qEiHsR2s-lAKqubrOGQe-6" target="qEiHsR2s-lAKqubrOGQe-2" edge="1">
          <mxGeometry relative="1" as="geometry">
            <mxPoint x="215" y="119" as="sourcePoint" />
            <mxPoint x="248" y="150" as="targetPoint" />
          </mxGeometry>
        </mxCell>
        <mxCell id="qEiHsR2s-lAKqubrOGQe-10" value="street" style="ellipse;whiteSpace=wrap;html=1;align=center;" parent="1" vertex="1">
          <mxGeometry x="210" y="50" width="50" height="20" as="geometry" />
        </mxCell>
        <mxCell id="qEiHsR2s-lAKqubrOGQe-11" value="" style="endArrow=none;html=1;rounded=0;" parent="1" source="qEiHsR2s-lAKqubrOGQe-10" target="qEiHsR2s-lAKqubrOGQe-6" edge="1">
          <mxGeometry relative="1" as="geometry">
            <mxPoint x="205" y="64" as="sourcePoint" />
            <mxPoint x="263" y="85" as="targetPoint" />
          </mxGeometry>
        </mxCell>
        <mxCell id="qEiHsR2s-lAKqubrOGQe-12" value="city" style="ellipse;whiteSpace=wrap;html=1;align=center;" parent="1" vertex="1">
          <mxGeometry x="290" y="50" width="50" height="20" as="geometry" />
        </mxCell>
        <mxCell id="qEiHsR2s-lAKqubrOGQe-13" value="" style="endArrow=none;html=1;rounded=0;" parent="1" source="qEiHsR2s-lAKqubrOGQe-12" target="qEiHsR2s-lAKqubrOGQe-6" edge="1">
          <mxGeometry relative="1" as="geometry">
            <mxPoint x="265" y="64" as="sourcePoint" />
            <mxPoint x="323" y="85" as="targetPoint" />
          </mxGeometry>
        </mxCell>
        <mxCell id="qEiHsR2s-lAKqubrOGQe-14" value="phone number" style="ellipse;whiteSpace=wrap;html=1;align=center;" parent="1" vertex="1">
          <mxGeometry x="300" y="87.5" width="90" height="25" as="geometry" />
        </mxCell>
        <mxCell id="qEiHsR2s-lAKqubrOGQe-15" value="" style="endArrow=none;html=1;rounded=0;" parent="1" target="qEiHsR2s-lAKqubrOGQe-2" edge="1">
          <mxGeometry relative="1" as="geometry">
            <mxPoint x="327.7729921509655" y="114.0477744922099" as="sourcePoint" />
            <mxPoint x="331.25" y="140" as="targetPoint" />
          </mxGeometry>
        </mxCell>
        <mxCell id="qEiHsR2s-lAKqubrOGQe-16" value="&lt;font style=&quot;font-size: 20px;&quot;&gt;&lt;b&gt;instrument&lt;/b&gt;&lt;/font&gt;" style="whiteSpace=wrap;html=1;align=center;" parent="1" vertex="1">
          <mxGeometry x="200" y="370" width="120" height="40" as="geometry" />
        </mxCell>
        <mxCell id="qEiHsR2s-lAKqubrOGQe-17" value="name" style="ellipse;whiteSpace=wrap;html=1;align=center;fontStyle=4;" parent="1" vertex="1">
          <mxGeometry x="100" y="450" width="75" height="30" as="geometry" />
        </mxCell>
        <mxCell id="qEiHsR2s-lAKqubrOGQe-19" value="" style="endArrow=none;html=1;rounded=0;" parent="1" source="qEiHsR2s-lAKqubrOGQe-16" target="qEiHsR2s-lAKqubrOGQe-17" edge="1">
          <mxGeometry relative="1" as="geometry">
            <mxPoint x="300" y="250" as="sourcePoint" />
            <mxPoint x="460" y="250" as="targetPoint" />
          </mxGeometry>
        </mxCell>
        <mxCell id="qEiHsR2s-lAKqubrOGQe-20" value="musical key" style="ellipse;whiteSpace=wrap;html=1;align=center;" parent="1" vertex="1">
          <mxGeometry x="200" y="470" width="100" height="40" as="geometry" />
        </mxCell>
        <mxCell id="qEiHsR2s-lAKqubrOGQe-21" value="" style="endArrow=none;html=1;rounded=0;" parent="1" source="qEiHsR2s-lAKqubrOGQe-16" target="qEiHsR2s-lAKqubrOGQe-20" edge="1">
          <mxGeometry relative="1" as="geometry">
            <mxPoint x="237" y="420" as="sourcePoint" />
            <mxPoint x="168" y="462" as="targetPoint" />
          </mxGeometry>
        </mxCell>
        <mxCell id="qEiHsR2s-lAKqubrOGQe-22" value="&lt;span style=&quot;font-size: 20px;&quot;&gt;&lt;b&gt;album&lt;/b&gt;&lt;/span&gt;" style="whiteSpace=wrap;html=1;align=center;" parent="1" vertex="1">
          <mxGeometry x="540" y="370" width="120" height="40" as="geometry" />
        </mxCell>
        <mxCell id="qEiHsR2s-lAKqubrOGQe-23" value="title" style="ellipse;whiteSpace=wrap;html=1;align=center;fontStyle=4;" parent="1" vertex="1">
          <mxGeometry x="440" y="450" width="75" height="30" as="geometry" />
        </mxCell>
        <mxCell id="qEiHsR2s-lAKqubrOGQe-24" value="" style="endArrow=none;html=1;rounded=0;" parent="1" source="qEiHsR2s-lAKqubrOGQe-22" target="qEiHsR2s-lAKqubrOGQe-23" edge="1">
          <mxGeometry relative="1" as="geometry">
            <mxPoint x="640" y="250" as="sourcePoint" />
            <mxPoint x="800" y="250" as="targetPoint" />
          </mxGeometry>
        </mxCell>
        <mxCell id="qEiHsR2s-lAKqubrOGQe-25" value="&amp;nbsp;copyright date" style="ellipse;whiteSpace=wrap;html=1;align=center;" parent="1" vertex="1">
          <mxGeometry x="540" y="470" width="100" height="40" as="geometry" />
        </mxCell>
        <mxCell id="qEiHsR2s-lAKqubrOGQe-26" value="" style="endArrow=none;html=1;rounded=0;" parent="1" source="qEiHsR2s-lAKqubrOGQe-22" target="qEiHsR2s-lAKqubrOGQe-25" edge="1">
          <mxGeometry relative="1" as="geometry">
            <mxPoint x="577" y="420" as="sourcePoint" />
            <mxPoint x="508" y="462" as="targetPoint" />
          </mxGeometry>
        </mxCell>
        <mxCell id="qEiHsR2s-lAKqubrOGQe-27" value="album identifier." style="ellipse;whiteSpace=wrap;html=1;align=center;" parent="1" vertex="1">
          <mxGeometry x="650" y="460" width="100" height="40" as="geometry" />
        </mxCell>
        <mxCell id="qEiHsR2s-lAKqubrOGQe-28" value="" style="endArrow=none;html=1;rounded=0;" parent="1" source="qEiHsR2s-lAKqubrOGQe-22" target="qEiHsR2s-lAKqubrOGQe-27" edge="1">
          <mxGeometry relative="1" as="geometry">
            <mxPoint x="608" y="420" as="sourcePoint" />
            <mxPoint x="602" y="480" as="targetPoint" />
          </mxGeometry>
        </mxCell>
        <mxCell id="qEiHsR2s-lAKqubrOGQe-29" value="&lt;span style=&quot;font-size: 20px;&quot;&gt;&lt;b&gt;song&lt;/b&gt;&lt;/span&gt;" style="whiteSpace=wrap;html=1;align=center;" parent="1" vertex="1">
          <mxGeometry x="540" y="140" width="120" height="40" as="geometry" />
        </mxCell>
        <mxCell id="qEiHsR2s-lAKqubrOGQe-30" value="title" style="ellipse;whiteSpace=wrap;html=1;align=center;fontStyle=4;" parent="1" vertex="1">
          <mxGeometry x="440" y="55" width="75" height="30" as="geometry" />
        </mxCell>
        <mxCell id="qEiHsR2s-lAKqubrOGQe-31" value="" style="endArrow=none;html=1;rounded=0;" parent="1" source="qEiHsR2s-lAKqubrOGQe-29" target="qEiHsR2s-lAKqubrOGQe-30" edge="1">
          <mxGeometry relative="1" as="geometry">
            <mxPoint x="640" y="20" as="sourcePoint" />
            <mxPoint x="800" y="20" as="targetPoint" />
          </mxGeometry>
        </mxCell>
        <mxCell id="qEiHsR2s-lAKqubrOGQe-32" value="author" style="ellipse;whiteSpace=wrap;html=1;align=center;" parent="1" vertex="1">
          <mxGeometry x="550" y="50" width="100" height="40" as="geometry" />
        </mxCell>
        <mxCell id="qEiHsR2s-lAKqubrOGQe-33" value="" style="endArrow=none;html=1;rounded=0;" parent="1" source="qEiHsR2s-lAKqubrOGQe-29" target="qEiHsR2s-lAKqubrOGQe-32" edge="1">
          <mxGeometry relative="1" as="geometry">
            <mxPoint x="577" y="190" as="sourcePoint" />
            <mxPoint x="508" y="232" as="targetPoint" />
          </mxGeometry>
        </mxCell>
        <mxCell id="qEiHsR2s-lAKqubrOGQe-36" value="" style="shape=link;html=1;rounded=0;" parent="1" source="qEiHsR2s-lAKqubrOGQe-42" target="qEiHsR2s-lAKqubrOGQe-16" edge="1">
          <mxGeometry relative="1" as="geometry">
            <mxPoint x="190" y="310" as="sourcePoint" />
            <mxPoint x="350" y="310" as="targetPoint" />
          </mxGeometry>
        </mxCell>
        <mxCell id="qEiHsR2s-lAKqubrOGQe-38" value="N" style="resizable=0;html=1;whiteSpace=wrap;align=right;verticalAlign=bottom;" parent="qEiHsR2s-lAKqubrOGQe-36" connectable="0" vertex="1">
          <mxGeometry x="1" relative="1" as="geometry" />
        </mxCell>
        <mxCell id="qEiHsR2s-lAKqubrOGQe-39" value="" style="shape=link;html=1;rounded=0;" parent="1" source="qEiHsR2s-lAKqubrOGQe-2" target="qEiHsR2s-lAKqubrOGQe-42" edge="1">
          <mxGeometry relative="1" as="geometry">
            <mxPoint x="241" y="180" as="sourcePoint" />
            <mxPoint x="249" y="370" as="targetPoint" />
          </mxGeometry>
        </mxCell>
        <mxCell id="qEiHsR2s-lAKqubrOGQe-40" value="M" style="resizable=0;html=1;whiteSpace=wrap;align=left;verticalAlign=bottom;" parent="qEiHsR2s-lAKqubrOGQe-39" connectable="0" vertex="1">
          <mxGeometry x="-1" relative="1" as="geometry" />
        </mxCell>
        <mxCell id="qEiHsR2s-lAKqubrOGQe-42" value="play&amp;nbsp;" style="shape=rhombus;perimeter=rhombusPerimeter;whiteSpace=wrap;html=1;align=center;" parent="1" vertex="1">
          <mxGeometry x="200" y="250" width="120" height="60" as="geometry" />
        </mxCell>
        <mxCell id="qEiHsR2s-lAKqubrOGQe-43" value="" style="shape=link;html=1;rounded=0;" parent="1" edge="1" target="qEiHsR2s-lAKqubrOGQe-29" source="5L47LWELnlDVyEIAp0Ac-1">
          <mxGeometry relative="1" as="geometry">
            <mxPoint x="600" y="250" as="sourcePoint" />
            <mxPoint x="520" y="320" as="targetPoint" />
          </mxGeometry>
        </mxCell>
        <mxCell id="qEiHsR2s-lAKqubrOGQe-44" value="N" style="resizable=0;html=1;whiteSpace=wrap;align=right;verticalAlign=bottom;" parent="qEiHsR2s-lAKqubrOGQe-43" connectable="0" vertex="1">
          <mxGeometry x="1" relative="1" as="geometry" />
        </mxCell>
        <mxCell id="5L47LWELnlDVyEIAp0Ac-1" value="Set on&amp;nbsp;" style="shape=rhombus;perimeter=rhombusPerimeter;whiteSpace=wrap;html=1;align=center;" vertex="1" parent="1">
          <mxGeometry x="540" y="230" width="120" height="60" as="geometry" />
        </mxCell>
        <mxCell id="5L47LWELnlDVyEIAp0Ac-3" value="" style="shape=link;html=1;rounded=0;" edge="1" parent="1" source="5L47LWELnlDVyEIAp0Ac-1" target="qEiHsR2s-lAKqubrOGQe-22">
          <mxGeometry relative="1" as="geometry">
            <mxPoint x="400" y="320" as="sourcePoint" />
            <mxPoint x="560" y="320" as="targetPoint" />
          </mxGeometry>
        </mxCell>
        <mxCell id="5L47LWELnlDVyEIAp0Ac-4" value="1" style="resizable=0;html=1;whiteSpace=wrap;align=right;verticalAlign=bottom;" connectable="0" vertex="1" parent="5L47LWELnlDVyEIAp0Ac-3">
          <mxGeometry x="1" relative="1" as="geometry" />
        </mxCell>
        <mxCell id="5L47LWELnlDVyEIAp0Ac-5" value="" style="shape=link;html=1;rounded=0;" edge="1" parent="1" source="5L47LWELnlDVyEIAp0Ac-9" target="qEiHsR2s-lAKqubrOGQe-29">
          <mxGeometry relative="1" as="geometry">
            <mxPoint x="320" y="280" as="sourcePoint" />
            <mxPoint x="390" y="340" as="targetPoint" />
          </mxGeometry>
        </mxCell>
        <mxCell id="5L47LWELnlDVyEIAp0Ac-6" value="N" style="resizable=0;html=1;whiteSpace=wrap;align=right;verticalAlign=bottom;" connectable="0" vertex="1" parent="5L47LWELnlDVyEIAp0Ac-5">
          <mxGeometry x="1" relative="1" as="geometry" />
        </mxCell>
        <mxCell id="5L47LWELnlDVyEIAp0Ac-7" value="" style="shape=link;html=1;rounded=0;" edge="1" parent="1" target="5L47LWELnlDVyEIAp0Ac-9" source="qEiHsR2s-lAKqubrOGQe-2">
          <mxGeometry relative="1" as="geometry">
            <mxPoint x="390" y="150" as="sourcePoint" />
            <mxPoint x="379" y="340" as="targetPoint" />
          </mxGeometry>
        </mxCell>
        <mxCell id="5L47LWELnlDVyEIAp0Ac-8" value="M" style="resizable=0;html=1;whiteSpace=wrap;align=left;verticalAlign=bottom;" connectable="0" vertex="1" parent="5L47LWELnlDVyEIAp0Ac-7">
          <mxGeometry x="-1" relative="1" as="geometry" />
        </mxCell>
        <mxCell id="5L47LWELnlDVyEIAp0Ac-9" value="performed" style="shape=rhombus;perimeter=rhombusPerimeter;whiteSpace=wrap;html=1;align=center;" vertex="1" parent="1">
          <mxGeometry x="354" y="130" width="120" height="60" as="geometry" />
        </mxCell>
        <mxCell id="5L47LWELnlDVyEIAp0Ac-10" value="" style="shape=link;html=1;rounded=0;" edge="1" parent="1" source="5L47LWELnlDVyEIAp0Ac-12" target="qEiHsR2s-lAKqubrOGQe-22">
          <mxGeometry relative="1" as="geometry">
            <mxPoint x="440" y="320" as="sourcePoint" />
            <mxPoint x="440" y="250" as="targetPoint" />
          </mxGeometry>
        </mxCell>
        <mxCell id="5L47LWELnlDVyEIAp0Ac-11" value="N" style="resizable=0;html=1;whiteSpace=wrap;align=right;verticalAlign=bottom;" connectable="0" vertex="1" parent="5L47LWELnlDVyEIAp0Ac-10">
          <mxGeometry x="1" relative="1" as="geometry" />
        </mxCell>
        <mxCell id="5L47LWELnlDVyEIAp0Ac-12" value="producer" style="shape=rhombus;perimeter=rhombusPerimeter;whiteSpace=wrap;html=1;align=center;" vertex="1" parent="1">
          <mxGeometry x="370" y="240" width="120" height="60" as="geometry" />
        </mxCell>
        <mxCell id="5L47LWELnlDVyEIAp0Ac-13" value="" style="shape=link;html=1;rounded=0;" edge="1" parent="1" source="5L47LWELnlDVyEIAp0Ac-12" target="qEiHsR2s-lAKqubrOGQe-2">
          <mxGeometry relative="1" as="geometry">
            <mxPoint x="240" y="390" as="sourcePoint" />
            <mxPoint x="440" y="440" as="targetPoint" />
          </mxGeometry>
        </mxCell>
        <mxCell id="5L47LWELnlDVyEIAp0Ac-14" value="1" style="resizable=0;html=1;whiteSpace=wrap;align=right;verticalAlign=bottom;" connectable="0" vertex="1" parent="5L47LWELnlDVyEIAp0Ac-13">
          <mxGeometry x="1" relative="1" as="geometry" />
        </mxCell>
      </root>
    </mxGraphModel>
  </diagram>
</mxfile>
